Coordinates
version=1
nRows=26
nColumns=30
inDegrees=yes

Units are S.I. units (second, meters, Newtons, ...)
Angles are in degrees.

endheader
time	floatyaw	floatroll	floatpitch	floatx	floaty	floatz	pro_sup_l	deviation_l	flexion_l	cmc_flexion_l	cmc_abduction_l	mp_flexion_l	ip_flexion_l	2mcp_flexion_l	2mcp_abduction_l	2pm_flexion_l	2md_flexion_l	3mcp_flexion_l	3mcp_abduction_l	3pm_flexion_l	3md_flexion_l	4mcp_flexion_l	4mcp_abduction_l	4pm_flexion_l	4md_flexion_l	5mcp_flexion_l	5mcp_abduction_l	5pm_flexion_l	5md_flexion_l
0.005000	-3.835761	-5.011433	94.526577	0.158608	-0.266521	0.151512	106.647227	18.755584	18.634007	-3.590116	38.456672	-17.692512	-24.851814	62.139665	11.459645	32.596115	29.669320	55.534368	6.403742	34.511480	42.391076	44.659440	-5.228374	54.244236	44.869290	19.411882	-11.209545	54.078456	49.067793
0.015000	-3.835761	-5.011433	94.526577	0.157638	-0.265877	0.150391	106.029940	18.465321	17.886691	-2.654184	38.795084	-17.782738	-27.521330	62.082789	11.365298	32.868956	30.740523	55.373536	6.330330	34.745048	43.944397	44.203869	-5.341620	54.759998	46.170004	19.123413	-11.101515	53.935597	49.571878
0.025000	-3.835761	-5.011433	94.526577	0.156672	-0.265293	0.149282	105.453193	18.204771	17.160747	-1.772087	39.110013	-17.787398	-30.193205	61.944037	11.283115	33.179989	31.871771	55.159681	6.270216	35.011689	45.488690	43.741849	-5.445642	55.256040	47.475902	18.853436	-10.991540	53.763158	50.077258
0.035000	-3.835761	-5.011433	94.526577	0.155741	-0.264809	0.148199	104.923832	17.977510	16.490999	-1.006750	39.380588	-17.701712	-32.686122	61.757443	11.217161	33.491504	32.978006	54.928279	6.224384	35.275203	46.930172	43.310199	-5.534525	55.696204	48.712936	18.637041	-10.886149	53.549992	50.574669
0.045000	-3.835761	-5.011433	94.526577	0.154865	-0.264452	0.147163	104.450827	17.785012	15.906684	-0.404726	39.600659	-17.529906	-34.845854	61.557876	11.168776	33.763496	33.976831	54.714224	6.191951	35.495971	48.186850	42.940634	-5.604908	56.045061	49.817476	18.505109	-10.796164	53.285680	51.045538
0.055000	-3.835761	-5.011433	94.526577	0.154059	-0.264241	0.146208	104.048148	17.629659	15.422076	0.015112	39.775329	-17.288813	-36.576182	61.373266	11.137041	33.966747	34.808458	54.544093	6.170521	35.644129	49.204184	42.654876	-5.656360	56.278644	50.747460	18.477075	-10.732693	52.970071	51.462824
0.065000	-3.835761	-5.011433	94.526577	0.153330	-0.264170	0.145385	103.734218	17.516806	15.031594	0.264884	39.915569	-17.007704	-37.851785	61.222605	11.119435	34.091154	35.444224	54.432646	6.156881	35.709488	49.961240	42.463191	-5.690935	56.392544	51.484700	18.553057	-10.701146	52.621503	51.797888
0.075000	-3.835761	-5.011433	94.526577	0.152686	-0.264211	0.144744	103.526773	17.453928	14.712685	0.381291	40.033373	-16.722699	-38.710292	61.118491	11.112223	34.145681	35.882502	54.383435	6.147807	35.703937	50.466786	42.365693	-5.712178	56.402878	52.030654	18.711687	-10.696991	52.276350	52.030642
0.085000	-3.835761	-5.011433	94.526577	0.152137	-0.264322	0.144317	103.434262	17.446611	14.436267	0.412842	40.138581	-16.467447	-39.230901	61.069355	11.110729	34.151522	36.139100	54.390798	6.140738	35.656210	50.750143	42.354036	-5.723916	56.340174	52.401006	18.915904	-10.706452	51.978568	52.158643
0.095000	-3.835761	-5.011433	94.526577	0.151694	-0.264455	0.144104	103.447686	17.493368	14.179976	0.406285	40.237069	-16.264244	-39.509957	61.077841	11.109961	34.133058	36.240306	54.441166	6.134194	35.602171	50.852466	42.411996	-5.729258	56.239978	52.622325	19.123705	-10.712135	51.764614	52.200316
0.105000	-3.835761	-5.011433	94.526577	0.151365	-0.264572	0.144064	103.537903	17.582335	13.937115	0.396517	40.329743	-16.119940	-39.639682	61.136687	11.105605	34.110604	36.220559	54.514151	6.127828	35.574386	50.820590	42.515615	-5.730129	56.134533	52.729609	19.298807	-10.700357	51.651267	52.188855
0.115000	-3.835761	-5.011433	94.526577	0.151148	-0.264653	0.144126	103.661518	17.692122	13.716606	0.401853	40.412489	-16.028426	-39.692343	61.226887	11.094922	34.096531	36.120784	54.585572	6.122100	35.593393	50.702670	42.634916	-5.727540	56.047574	52.762013	19.417852	-10.666243	51.631058	52.158166
0.125000	-3.835761	-5.011433	94.526577	0.151025	-0.264699	0.144217	103.773944	17.797079	13.534662	0.424738	40.477881	-15.977449	-39.712130	61.321659	11.077068	34.094591	35.983669	54.633472	6.117650	35.661876	50.544946	42.738737	-5.722328	55.991757	52.756676	19.473128	-10.614292	51.675652	52.128631
0.135000	-3.835761	-5.011433	94.526577	0.150968	-0.264722	0.144282	103.843942	17.874976	13.403614	0.456645	40.518897	-15.955218	-39.716795	61.395209	11.052859	34.101820	35.846606	54.645236	6.114645	35.763344	50.389610	42.802182	-5.715856	55.967771	52.743362	19.471280	-10.554775	51.744867	52.101980
0.145000	-3.835761	-5.011433	94.526577	0.150939	-0.264740	0.144302	103.862560	17.913597	13.324292	0.484967	40.533315	-15.953509	-39.707683	61.431528	11.024321	34.112428	35.735822	54.621752	6.112460	35.867539	50.272481	42.813649	-5.710181	55.965564	52.742019	19.429004	-10.498467	51.798455	52.067958
0.155000	-3.835761	-5.011433	94.526577	0.150909	-0.264764	0.144289	103.842291	17.913187	13.285530	0.499376	40.526428	-15.967082	-39.682488	61.428506	10.994285	34.122404	35.664043	54.575635	6.109837	35.942664	50.218329	42.777652	-5.707568	55.968765	52.762742	19.367101	-10.452693	51.807655	52.016499
0.165000	-3.835761	-5.011433	94.526577	0.150859	-0.264796	0.144275	103.807459	17.883999	13.269783	0.495684	40.510295	-15.991358	-39.644273	61.396068	10.965960	34.132390	35.631514	54.524420	6.105460	35.969512	50.234475	42.711690	-5.709609	55.961746	52.806745	19.304616	-10.420199	51.763259	51.946258
0.175000	-3.835761	-5.011433	94.526577	0.150788	-0.264835	0.144288	103.781218	17.840828	13.260673	0.476392	40.499504	-16.020394	-39.603384	61.350462	10.942347	34.146617	35.629472	54.483030	6.098617	35.949073	50.307656	42.638711	-5.716374	55.936259	52.868049	19.254830	-10.400281	51.676969	51.865266
0.185000	-3.835761	-5.011433	94.526577	0.150707	-0.264872	0.144338	103.775686	17.797440	13.248298	0.448444	40.505230	-16.046361	-39.573278	61.307780	10.925560	34.168335	35.645576	54.459615	6.089638	35.898419	50.409542	42.578712	-5.726124	55.894132	52.936503	19.223913	-10.390468	51.574866	51.786166
0.195000	-3.835761	-5.011433	94.526577	0.150632	-0.264901	0.144413	103.789200	17.762981	13.230480	0.419698	40.530465	-16.060922	-39.564049	61.278795	10.916288	34.195469	35.670006	54.455486	6.079882	35.838245	50.510273	42.542732	-5.735873	55.844980	53.001953	19.211471	-10.387472	51.485746	51.720987
0.205000	-3.835761	-5.011433	94.526577	0.150573	-0.264919	0.144488	103.810402	17.740957	13.210578	0.395925	40.569120	-16.058163	-39.577481	61.266290	10.913614	34.220615	35.699070	54.467001	6.071250	35.781948	50.591804	42.530874	-5.742662	55.801162	53.057679	19.211650	-10.387458	51.430232	51.678163
0.215000	-3.835761	-5.011433	94.526577	0.150536	-0.264927	0.144536	103.825588	17.730259	13.193744	0.379506	40.609673	-16.037636	-39.605892	61.265637	10.915306	34.235941	35.733330	54.487311	6.065399	35.733906	50.651661	42.534442	-5.744879	55.773336	53.100882	19.214707	-10.386479	51.415603	51.661165
0.225000	-3.835761	-5.011433	94.526577	0.150514	-0.264927	0.144542	103.825145	17.727212	13.183507	0.369912	40.641223	-16.005332	-39.635254	61.268432	10.918506	34.239192	35.771244	54.507834	6.063017	35.695766	50.695159	42.540977	-5.742841	55.768174	53.130203	19.209951	-10.381525	51.437076	51.667442
0.235000	-3.835761	-5.011433	94.526577	0.150501	-0.264924	0.144504	103.806585	17.727662	13.179883	0.365192	40.658432	-15.971273	-39.651451	61.267515	10.920620	34.235910	35.803698	54.520465	6.063513	35.672804	50.723636	42.540103	-5.738346	55.787541	53.142948	19.189979	-10.371665	51.482801	51.688007
0.245000	-3.835761	-5.011433	94.526577	0.150484	-0.264925	0.144436	103.773921	17.728405	13.179346	0.363508	40.663089	-15.944717	-39.646867	61.260845	10.920018	34.235923	35.814849	54.520539	6.065313	35.673646	50.729109	42.527798	-5.733617	55.828097	53.135033	19.154247	-10.358377	51.539265	51.709142
0.255000	-3.835761	-5.011433	94.526577	0.150458	-0.264932	0.144355	103.734755	17.727763	13.176315	0.364022	40.662307	-15.929973	-39.623628	61.252267	10.916318	34.246561	35.790028	54.509126	6.066609	35.703538	50.699804	42.507379	-5.730317	55.881427	53.104207	19.109623	-10.344709	51.595012	51.716734
